<?xml version="1.0" standalone="no"?>
<!DOCTYPE svg PUBLIC "-//W3C//DTD SVG 20010904//EN"
 "http://www.w3.org/TR/2001/REC-SVG-20010904/DTD/svg10.dtd">
<svg version="1.0" xmlns="http://www.w3.org/2000/svg"
 width="127.000000pt" height="127.000000pt" viewBox="0 0 127.000000 127.000000"
 preserveAspectRatio="xMidYMid meet">

<g transform="translate(0.000000,127.000000) scale(0.100000,-0.100000)"
fill="#000000" stroke="none">
<path d="M368 879 l3 -179 -173 -1 -173 0 170 -67 170 -68 5 -175 5 -176 75
164 75 164 114 -3 114 -3 76 -165 76 -165 5 180 5 180 164 65 165 65 -167 3
-167 2 -2 182 -3 181 -84 -182 -84 -181 -101 0 -101 1 -79 175 c-44 96 -82
177 -85 179 -3 2 -5 -77 -3 -176z"/>
</g>
</svg>
